<svg width="60" height="60" viewBox="0 0 60 60" fill="none" xmlns="http://www.w3.org/2000/svg">
<mask id="mask0_2_4" style="mask-type:alpha" maskUnits="userSpaceOnUse" x="0" y="0" width="60" height="60">
<circle cx="30" cy="30" r="30" fill="#3546AB"/>
</mask>
<g mask="url(#mask0_2_4)">
<circle cx="30" cy="30" r="30" fill="#00BAFF"/>
<path d="M41.5 35C52.3 38.2 49.6667 48 47 52.5L71 60.5L79.5 -13C63.6667 -13.8333 29.5 -15 19.5 -13C7.00001 -10.5 13.5 3.99999 12 14C10.5 24 28 31 41.5 35Z" fill="#4D17E2"/>
<path d="M31.29 67.735C26.46 67.735 22.12 66.895 18.27 65.215C14.49 63.465 11.515 61.085 9.345 58.075C7.175 54.995 6.055 51.46 5.985 47.47H16.17C16.52 50.9 17.92 53.805 20.37 56.185C22.89 58.495 26.53 59.65 31.29 59.65C35.84 59.65 39.41 58.53 42 56.29C44.66 53.98 45.99 51.04 45.99 47.47C45.99 44.67 45.22 42.395 43.68 40.645C42.14 38.895 40.215 37.565 37.905 36.655C35.595 35.745 32.48 34.765 28.56 33.715C23.73 32.455 19.845 31.195 16.905 29.935C14.035 28.675 11.55 26.715 9.45 24.055C7.42 21.325 6.405 17.685 6.405 13.135C6.405 9.145 7.42 5.61 9.45 2.53C11.48 -0.550004 14.315 -2.93001 17.955 -4.61C21.665 -6.29 25.9 -7.13 30.66 -7.13C37.52 -7.13 43.12 -5.415 47.46 -1.985C51.87 1.445 54.355 5.995 54.915 11.665H44.415C44.065 8.865 42.595 6.415 40.005 4.315C37.415 2.145 33.985 1.06 29.715 1.06C25.725 1.06 22.47 2.11 19.95 4.20999C17.43 6.24 16.17 9.11 16.17 12.82C16.17 15.48 16.905 17.65 18.375 19.33C19.915 21.01 21.77 22.305 23.94 23.215C26.18 24.055 29.295 25.035 33.285 26.155C38.115 27.485 42 28.815 44.94 30.145C47.88 31.405 50.4 33.4 52.5 36.13C54.6 38.79 55.65 42.43 55.65 47.05C55.65 50.62 54.705 53.98 52.815 57.13C50.925 60.28 48.125 62.835 44.415 64.795C40.705 66.755 36.33 67.735 31.29 67.735Z" fill="white"/>
</g>
</svg>
